<svg xmlns="http://www.w3.org/2000/svg" version="1.1" xmlns:xlink="http://www.w3.org/1999/xlink" xmlns:svgjs="http://svgjs.dev/svgjs" viewBox="0 0 800 400"><path d="M266.0149426607719 9.943133208116421C265.88640719934614 10.393002141575543 264.4142255994112 15.127835315128692 264.22142459436566 16.220374140104184C264.0286235893201 17.312912965079676 263.38896162236045 23.966788160165677 263.32469607874066 25.187860998472104C263.26043053512086 26.40893383677853 263.32469607874066 32.29459497070365 263.32469607874066 33.25859979089154C263.32469607874066 34.222604611079426 263.32469607874066 37.80362039025677 263.32469607874066 38.639091047605405C263.32469607874066 39.47456170495404 263.19616280440795 44.016592188835666 263.32469607874066 44.9163298934306C263.45322935307337 45.81606759802553 265.1181836275688 50.29383280531618 265.1181836275688 51.19357064660443C265.1181836275688 52.09330848789268 263.32469607874066 56.571073558490006 263.32469607874066 57.470811399778256C263.32469607874066 58.3705492410665 264.4755150688123 63.105382227262396 265.1181836275688 63.748052152952084C265.7608521863253 64.39072207864177 271.3281593152315 65.98842981433921 272.2921643404594 66.43829873498333C273.2561693656873 66.88816765562746 277.5411437817843 69.63969089603476 278.56941653772503 70.02529290612591C279.5976892936658 70.41089491621706 285.4833502535453 71.36892297840171 286.6401562838188 71.81879189904583C287.79696231409224 72.26866081968996 293.618357730352 75.72413064416303 294.71089602991253 76.30253365929974C295.8034343294731 76.88093667443646 300.8566061739555 79.24686144606325 301.88487674280316 79.88953164513958C302.9131473116508 80.53220184421592 307.9020514254203 84.88442279911094 309.0588574556938 85.27002480920208C310.21566348596724 85.65562681929323 316.80528247400434 85.07722380415652 318.02635623499066 85.27002480920208C319.247429995977 85.46282581424765 325.2616242301892 87.57466938114219 326.0970959810844 87.96027139123333C326.9325677319796 88.34587340132448 328.9771653068494 90.39345033105268 329.6841015963188 90.65051797326458C330.3910378857882 90.90758561547649 335.0615859814913 91.29019410546674 335.9613232760063 91.54726174767865C336.86106057052126 91.80432938989055 341.5316391838025 93.91617350355837 342.2385754732719 94.2375083297099C342.9455117627413 94.55884315586142 345.11861428145875 95.51686767673544 345.82555057092816 96.03100350793255C346.53248686039757 96.54513933912966 351.1387977429659 100.96162747796429 352.1028027681938 101.41149667199505C353.0668077934217 101.86136586602582 358.37704618656943 101.85837888177288 359.2767834810844 102.30824807580365C360.1765207755994 102.75811726983441 363.8218048942517 107.17460540866904 364.6572766451469 107.68874123986615C365.4927483960421 108.20287707106326 369.97052381718464 109.35370259698284 370.93452884241253 109.4822364180888C371.8985338676404 109.61077023919476 377.14450453007527 109.09663440799766 378.10850955530316 109.4822364180888C379.07251458053105 109.86783842817995 383.4217567273409 114.22005992984825 384.3857617525688 114.8627295821513C385.3497667777967 115.50539923445436 390.46720416589886 118.06411792850547 391.5597424654594 118.44971993859662C392.65228076501995 118.83532194868776 398.5379439119926 119.921887373289 399.63048221155316 120.2432227462138C400.7230205111137 120.56455811913861 405.8404578992159 122.61213450209351 406.8044629244438 122.93346932824505C407.7684679496717 123.2548041543966 412.1177100964815 124.34136249637658 413.0817151217094 124.72696450646771C414.0457201469373 125.11256651655884 419.35595854008506 127.60702565606488 420.25569583460003 128.31396249230755C421.155433129115 129.02089932855023 424.80071724776735 134.20559796746625 425.63618899866253 134.59119943078412C426.4716607495577 134.97680089410198 431.0137039014132 133.69444802697552 431.91344119592816 133.69444802697552C432.81317849044314 133.69444802697552 437.3551933118136 134.2698640578593 438.19066287561566 134.59119943078412C439.0261324394177 134.91253480370892 442.5428832837374 137.59979440148726 443.57115603967816 138.17819741662396C444.5994287956189 138.75660043176066 451.5103820630343 142.2120699828471 452.53865481897503 142.66193917687787C453.5669275749158 143.11180837090862 456.8908752270968 144.2626409794495 457.91914798303753 144.45544198449505C458.9474207389783 144.64824298954062 465.85837400639366 145.03085147953087 466.8866467623344 145.35218575890912C467.91491951827516 145.67352003828736 471.43167036259484 148.3607731002177 472.2671399263969 148.93917611535443C473.102609490199 149.51757913049116 477.64462431156943 152.9087891270325 478.5443616060844 153.42292550500287C479.4440989005994 153.93706188297324 484.05040978316777 155.79183780765587 484.82161380335003 156.11317208703412C485.5928178235323 156.43450636641236 488.46987837040734 157.585325356484 489.3053479342094 157.90665963586224C490.1408174980115 158.2279939152405 495.38679034753943 160.21130420780236 496.47932864710003 160.5969062178935C497.57186694666063 160.98250822798462 503.58606336796595 162.96581742699993 504.5500683931938 163.28715279992474C505.5140734184216 163.60848817284955 509.159357537074 164.75932023461712 509.9305615572563 165.08065560754193C510.70176557743855 165.40199098046673 514.4755851575167 167.3210335423157 515.3110547213188 167.77090218957318C516.1465242851209 168.22077083683067 520.6242713757784 171.03655717309368 521.5882764010063 171.3578925460185C522.5522814262341 171.6792279189433 527.6697471448214 171.86904956913048 528.762287631475 172.25465157922162C529.8548281181287 172.64025358931275 535.5476858858696 176.2885170628235 536.8330273775688 176.738385710081C538.118368869268 177.18825435733848 545.4119436983696 178.27482087548626 546.6972851900688 178.53188851769818C547.982626681768 178.7889561599101 553.8682898287407 179.93977405643517 554.7680249361625 180.3253760665263C555.6677600435844 180.71097807661744 558.1591924369764 183.3982453037903 559.2517285494438 183.91238168176068C560.3442646619112 184.42651805973105 568.534572380824 186.98523675378217 570.0127148775688 187.499372038206C571.4908573743136 188.0135073226298 578.912967664841 190.44369274234825 579.8769726900688 191.0863623946513C580.8409777152966 191.72903204695436 582.2428762138318 195.95271918074343 583.463947787725 196.4668555587138C584.6850193616183 196.98099193668418 595.1799716524712 197.61768871402793 596.9151806978813 198.260358366331C598.6503897432914 198.90302801863405 606.6478964571586 204.9202037947978 607.6761670260063 205.43433907922162C608.704437594854 205.94847436364543 610.2991370984347 205.04873706913048 611.2631421236625 205.43433907922162C612.2271471488904 205.81994108931275 619.7135229830375 210.2364292281474 621.1273999361625 210.81483224328412C622.5412768892876 211.39323525842084 629.6420507133436 213.05520908451132 630.9916577486625 213.50507882531537C632.3412647839815 213.9549485661194 638.8023199801079 216.77074906762493 639.9591260103813 217.09208444054974C641.1159320406547 217.41341981347455 646.1048666720023 217.73176057275188 647.13313724085 217.9888282149638C648.1614078096977 218.24589585717573 653.0860158622693 220.10067178185832 654.3070874361625 220.67907479699505C655.5281590100558 221.25747781213178 662.9502693005832 225.35263167158814 664.1713452486625 226.05956796105755C665.3924211967419 226.76650425052696 670.4456169975232 229.9648990767802 671.3453564791313 230.54330209191693C672.2450959607394 231.12170510705366 675.6975790743461 233.8089723342265 676.7258496431938 234.1303077071513C677.7541202120415 234.4516430800761 684.5365118746391 234.89851820723268 685.6933179049125 235.02705148156537C686.8501239351859 235.15558475589805 691.8390585665336 235.5381932458883 692.8673291353813 235.92379525597943C693.895599704229 236.30939726607056 698.8844733004204 239.95767490482382 700.0412793306938 240.40754464562787C701.1980853609672 240.8574143864319 707.4664005872042 241.68691107527468 709.0088086275688 242.20104745324505C710.5512166679333 242.71518383121543 720.4064503308565 247.00313869571738 721.5632519869438 247.58154061730755C722.7200536430311 248.15994253889772 724.3147575207979 249.82190329329222 725.1502270846 250.27177194054974C725.9856966484022 250.7216405878072 731.9356253389946 253.40890781498007 733.2209668306938 253.85877755578412C734.506308322393 254.30864729658816 741.8641486951144 256.22768985843715 743.0852246431938 256.54902413781537C744.3063005912732 256.8703584171936 749.2309653048148 258.21397841231084 750.2592358736625 258.3425116866435C751.2875064425102 258.47104496097614 756.4691810437472 257.95690967655236 757.433186068975 258.3425116866435C758.3971910942029 258.7281136967346 762.8107293022107 263.14460183556923 763.7104687838188 263.723004850706C764.6102082654269 264.3014078658427 769.1522208997042 266.09191605981243 769.9876904635063 266.41325143273724C770.8231600273084 266.73458680566205 811.4219650098116 283.18096244271646 775.3681836275688 268.2067542403544C739.3144022453259 253.2325460379924 303.3510545687309 72.57355397001955 266.9116711763969 57.470811399778256 " fill="none" stroke-width="8" stroke="#564dc0" stroke-linecap="round" stroke-dasharray="27 0"></path><defs><linearGradient id="SvgjsLinearGradient1003"><stop stop-color="hsl(37, 99%, 67%)" offset="0"></stop><stop stop-color="hsl(316, 73%, 52%)" offset="1"></stop></linearGradient></defs></svg>